<mxfile host="app.diagrams.net" agent="Mozilla/5.0 (Windows NT 10.0; Win64; x64) AppleWebKit/537.36 (KHTML, like Gecko) Chrome/131.0.0.0 Safari/537.36" version="25.0.3">
  <diagram name="Page-1" id="sO1wf_TuPyKM9SQ8LAvp">
    <mxGraphModel dx="1290" dy="557" grid="1" gridSize="10" guides="1" tooltips="1" connect="1" arrows="1" fold="1" page="1" pageScale="1" pageWidth="827" pageHeight="1169" math="0" shadow="0">
      <root>
        <mxCell id="0" />
        <mxCell id="1" parent="0" />
        <mxCell id="wumWjuszb0Et5ix6EF-E-1" value="" style="shape=waypoint;sketch=0;fillStyle=solid;size=6;pointerEvents=1;points=[];fillColor=none;resizable=0;rotatable=0;perimeter=centerPerimeter;snapToPoint=1;strokeWidth=5;" parent="1" vertex="1">
          <mxGeometry x="330" y="30" width="20" height="20" as="geometry" />
        </mxCell>
        <mxCell id="wumWjuszb0Et5ix6EF-E-3" value="" style="rhombus;whiteSpace=wrap;html=1;" parent="1" vertex="1">
          <mxGeometry x="300" y="130" width="80" height="30" as="geometry" />
        </mxCell>
        <mxCell id="wumWjuszb0Et5ix6EF-E-4" value="Login" style="rounded=1;whiteSpace=wrap;html=1;" parent="1" vertex="1">
          <mxGeometry x="285" y="80" width="110" height="20" as="geometry" />
        </mxCell>
        <mxCell id="wumWjuszb0Et5ix6EF-E-5" value="" style="endArrow=classic;html=1;rounded=0;exitX=0.462;exitY=1.107;exitDx=0;exitDy=0;exitPerimeter=0;entryX=0.5;entryY=0;entryDx=0;entryDy=0;" parent="1" source="wumWjuszb0Et5ix6EF-E-1" target="wumWjuszb0Et5ix6EF-E-4" edge="1">
          <mxGeometry width="50" height="50" relative="1" as="geometry">
            <mxPoint x="270" y="110" as="sourcePoint" />
            <mxPoint x="320" y="60" as="targetPoint" />
            <Array as="points" />
          </mxGeometry>
        </mxCell>
        <mxCell id="wumWjuszb0Et5ix6EF-E-7" value="" style="edgeStyle=none;orthogonalLoop=1;jettySize=auto;html=1;rounded=0;exitX=0.5;exitY=1;exitDx=0;exitDy=0;entryX=0.5;entryY=0;entryDx=0;entryDy=0;" parent="1" source="wumWjuszb0Et5ix6EF-E-4" target="wumWjuszb0Et5ix6EF-E-3" edge="1">
          <mxGeometry width="100" relative="1" as="geometry">
            <mxPoint x="290" y="110" as="sourcePoint" />
            <mxPoint x="390" y="110" as="targetPoint" />
            <Array as="points" />
          </mxGeometry>
        </mxCell>
        <mxCell id="wumWjuszb0Et5ix6EF-E-9" value="Alert &#39;Invalid User&#39;" style="rounded=1;whiteSpace=wrap;html=1;" parent="1" vertex="1">
          <mxGeometry x="440" y="135" width="110" height="20" as="geometry" />
        </mxCell>
        <mxCell id="wumWjuszb0Et5ix6EF-E-10" value="" style="edgeStyle=none;orthogonalLoop=1;jettySize=auto;html=1;rounded=0;exitX=1;exitY=0.5;exitDx=0;exitDy=0;entryX=0;entryY=0.5;entryDx=0;entryDy=0;" parent="1" source="wumWjuszb0Et5ix6EF-E-3" target="wumWjuszb0Et5ix6EF-E-9" edge="1">
          <mxGeometry width="100" relative="1" as="geometry">
            <mxPoint x="360" y="150" as="sourcePoint" />
            <mxPoint x="460" y="150" as="targetPoint" />
            <Array as="points" />
          </mxGeometry>
        </mxCell>
        <mxCell id="wumWjuszb0Et5ix6EF-E-11" value="" style="edgeStyle=none;orthogonalLoop=1;jettySize=auto;html=1;rounded=0;entryX=1;entryY=0.5;entryDx=0;entryDy=0;exitX=0.5;exitY=0;exitDx=0;exitDy=0;" parent="1" source="wumWjuszb0Et5ix6EF-E-9" target="wumWjuszb0Et5ix6EF-E-4" edge="1">
          <mxGeometry width="100" relative="1" as="geometry">
            <mxPoint x="440" y="110" as="sourcePoint" />
            <mxPoint x="540" y="110" as="targetPoint" />
            <Array as="points">
              <mxPoint x="495" y="90" />
            </Array>
          </mxGeometry>
        </mxCell>
        <mxCell id="wumWjuszb0Et5ix6EF-E-12" value="View Member" style="rounded=1;whiteSpace=wrap;html=1;" parent="1" vertex="1">
          <mxGeometry x="285" y="190" width="110" height="20" as="geometry" />
        </mxCell>
        <mxCell id="wumWjuszb0Et5ix6EF-E-13" value="Mark Attendance" style="rounded=1;whiteSpace=wrap;html=1;" parent="1" vertex="1">
          <mxGeometry x="285" y="240" width="110" height="20" as="geometry" />
        </mxCell>
        <mxCell id="wumWjuszb0Et5ix6EF-E-14" value="Save Attendance" style="rounded=1;whiteSpace=wrap;html=1;" parent="1" vertex="1">
          <mxGeometry x="285" y="290" width="110" height="20" as="geometry" />
        </mxCell>
        <mxCell id="wumWjuszb0Et5ix6EF-E-15" value="Alert &#39;Successful&#39;" style="rounded=1;whiteSpace=wrap;html=1;" parent="1" vertex="1">
          <mxGeometry x="285" y="400" width="110" height="20" as="geometry" />
        </mxCell>
        <mxCell id="wumWjuszb0Et5ix6EF-E-16" value="Alert &#39;Unccessful&#39;" style="rounded=1;whiteSpace=wrap;html=1;" parent="1" vertex="1">
          <mxGeometry x="110" y="400" width="110" height="20" as="geometry" />
        </mxCell>
        <mxCell id="wumWjuszb0Et5ix6EF-E-17" value="Save Attendance" style="rounded=1;whiteSpace=wrap;html=1;" parent="1" vertex="1">
          <mxGeometry x="285" y="450" width="110" height="20" as="geometry" />
        </mxCell>
        <mxCell id="wumWjuszb0Et5ix6EF-E-18" value="" style="rhombus;whiteSpace=wrap;html=1;" parent="1" vertex="1">
          <mxGeometry x="300" y="339" width="80" height="30" as="geometry" />
        </mxCell>
        <mxCell id="wumWjuszb0Et5ix6EF-E-23" value="" style="endArrow=classic;html=1;rounded=0;exitX=0.5;exitY=1;exitDx=0;exitDy=0;entryX=0.5;entryY=0;entryDx=0;entryDy=0;" parent="1" source="wumWjuszb0Et5ix6EF-E-3" target="wumWjuszb0Et5ix6EF-E-12" edge="1">
          <mxGeometry width="50" height="50" relative="1" as="geometry">
            <mxPoint x="240" y="250" as="sourcePoint" />
            <mxPoint x="290" y="200" as="targetPoint" />
          </mxGeometry>
        </mxCell>
        <mxCell id="wumWjuszb0Et5ix6EF-E-24" value="" style="endArrow=classic;html=1;rounded=0;exitX=0.5;exitY=1;exitDx=0;exitDy=0;entryX=0.5;entryY=0;entryDx=0;entryDy=0;" parent="1" source="wumWjuszb0Et5ix6EF-E-12" target="wumWjuszb0Et5ix6EF-E-13" edge="1">
          <mxGeometry width="50" height="50" relative="1" as="geometry">
            <mxPoint x="190" y="280" as="sourcePoint" />
            <mxPoint x="240" y="230" as="targetPoint" />
          </mxGeometry>
        </mxCell>
        <mxCell id="wumWjuszb0Et5ix6EF-E-25" value="" style="endArrow=classic;html=1;rounded=0;exitX=0.5;exitY=1;exitDx=0;exitDy=0;entryX=0.5;entryY=0;entryDx=0;entryDy=0;" parent="1" source="wumWjuszb0Et5ix6EF-E-13" target="wumWjuszb0Et5ix6EF-E-14" edge="1">
          <mxGeometry width="50" height="50" relative="1" as="geometry">
            <mxPoint x="340" y="300" as="sourcePoint" />
            <mxPoint x="390" y="250" as="targetPoint" />
          </mxGeometry>
        </mxCell>
        <mxCell id="wumWjuszb0Et5ix6EF-E-26" value="" style="endArrow=classic;html=1;rounded=0;exitX=0.5;exitY=1;exitDx=0;exitDy=0;entryX=0.5;entryY=0;entryDx=0;entryDy=0;" parent="1" source="wumWjuszb0Et5ix6EF-E-14" target="wumWjuszb0Et5ix6EF-E-18" edge="1">
          <mxGeometry width="50" height="50" relative="1" as="geometry">
            <mxPoint x="260" y="260" as="sourcePoint" />
            <mxPoint x="310" y="210" as="targetPoint" />
          </mxGeometry>
        </mxCell>
        <mxCell id="wumWjuszb0Et5ix6EF-E-27" value="" style="endArrow=classic;html=1;rounded=0;exitX=0.5;exitY=1;exitDx=0;exitDy=0;entryX=0.5;entryY=0;entryDx=0;entryDy=0;" parent="1" source="wumWjuszb0Et5ix6EF-E-18" target="wumWjuszb0Et5ix6EF-E-15" edge="1">
          <mxGeometry width="50" height="50" relative="1" as="geometry">
            <mxPoint x="190" y="510" as="sourcePoint" />
            <mxPoint x="240" y="460" as="targetPoint" />
          </mxGeometry>
        </mxCell>
        <mxCell id="wumWjuszb0Et5ix6EF-E-28" value="" style="endArrow=classic;html=1;rounded=0;exitX=0.5;exitY=1;exitDx=0;exitDy=0;entryX=0.5;entryY=0;entryDx=0;entryDy=0;" parent="1" source="wumWjuszb0Et5ix6EF-E-15" target="wumWjuszb0Et5ix6EF-E-17" edge="1">
          <mxGeometry width="50" height="50" relative="1" as="geometry">
            <mxPoint x="260" y="450" as="sourcePoint" />
            <mxPoint x="310" y="400" as="targetPoint" />
          </mxGeometry>
        </mxCell>
        <mxCell id="wumWjuszb0Et5ix6EF-E-29" value="" style="endArrow=classic;html=1;rounded=0;entryX=0.455;entryY=0;entryDx=0;entryDy=0;entryPerimeter=0;exitX=0.052;exitY=0.495;exitDx=0;exitDy=0;exitPerimeter=0;" parent="1" source="wumWjuszb0Et5ix6EF-E-18" target="wumWjuszb0Et5ix6EF-E-16" edge="1">
          <mxGeometry width="50" height="50" relative="1" as="geometry">
            <mxPoint x="290" y="360" as="sourcePoint" />
            <mxPoint x="310" y="400" as="targetPoint" />
            <Array as="points">
              <mxPoint x="160" y="354" />
            </Array>
          </mxGeometry>
        </mxCell>
        <mxCell id="wumWjuszb0Et5ix6EF-E-35" value="" style="ellipse;whiteSpace=wrap;html=1;aspect=fixed;" parent="1" vertex="1">
          <mxGeometry x="330" y="500" width="20" height="20" as="geometry" />
        </mxCell>
        <mxCell id="wumWjuszb0Et5ix6EF-E-36" value="" style="shape=waypoint;sketch=0;fillStyle=solid;size=6;pointerEvents=1;points=[];fillColor=none;resizable=0;rotatable=0;perimeter=centerPerimeter;snapToPoint=1;" parent="1" vertex="1">
          <mxGeometry x="330" y="500" width="20" height="20" as="geometry" />
        </mxCell>
        <mxCell id="wumWjuszb0Et5ix6EF-E-38" value="" style="ellipse;whiteSpace=wrap;html=1;aspect=fixed;" parent="1" vertex="1">
          <mxGeometry x="150" y="440" width="20" height="20" as="geometry" />
        </mxCell>
        <mxCell id="wumWjuszb0Et5ix6EF-E-39" value="" style="shape=waypoint;sketch=0;fillStyle=solid;size=6;pointerEvents=1;points=[];fillColor=none;resizable=0;rotatable=0;perimeter=centerPerimeter;snapToPoint=1;" parent="1" vertex="1">
          <mxGeometry x="150" y="440" width="20" height="20" as="geometry" />
        </mxCell>
        <mxCell id="wumWjuszb0Et5ix6EF-E-40" value="" style="endArrow=classic;html=1;rounded=0;exitX=0.5;exitY=1;exitDx=0;exitDy=0;entryX=0.5;entryY=0;entryDx=0;entryDy=0;" parent="1" source="wumWjuszb0Et5ix6EF-E-17" target="wumWjuszb0Et5ix6EF-E-35" edge="1">
          <mxGeometry width="50" height="50" relative="1" as="geometry">
            <mxPoint x="260" y="500" as="sourcePoint" />
            <mxPoint x="310" y="450" as="targetPoint" />
          </mxGeometry>
        </mxCell>
        <mxCell id="wumWjuszb0Et5ix6EF-E-41" value="" style="endArrow=classic;html=1;rounded=0;exitX=0.449;exitY=1.026;exitDx=0;exitDy=0;exitPerimeter=0;" parent="1" source="wumWjuszb0Et5ix6EF-E-16" target="wumWjuszb0Et5ix6EF-E-38" edge="1">
          <mxGeometry width="50" height="50" relative="1" as="geometry">
            <mxPoint x="260" y="500" as="sourcePoint" />
            <mxPoint x="310" y="450" as="targetPoint" />
          </mxGeometry>
        </mxCell>
        <mxCell id="pYhxMntjRJ3GyehWfnu0-4" value="&lt;font style=&quot;font-size: 10px;&quot;&gt;[Wrong ID or Password]&lt;/font&gt;" style="text;strokeColor=none;fillColor=none;align=left;verticalAlign=middle;spacingLeft=4;spacingRight=4;overflow=hidden;points=[[0,0.5],[1,0.5]];portConstraint=eastwest;rotatable=0;whiteSpace=wrap;html=1;" vertex="1" parent="1">
          <mxGeometry x="370" y="110" width="90" height="30" as="geometry" />
        </mxCell>
        <mxCell id="pYhxMntjRJ3GyehWfnu0-5" value="&lt;font style=&quot;font-size: 10px;&quot;&gt;[ID and Password Correct]&lt;/font&gt;" style="text;strokeColor=none;fillColor=none;align=left;verticalAlign=middle;spacingLeft=4;spacingRight=4;overflow=hidden;points=[[0,0.5],[1,0.5]];portConstraint=eastwest;rotatable=0;whiteSpace=wrap;html=1;" vertex="1" parent="1">
          <mxGeometry x="346" y="160" width="90" height="30" as="geometry" />
        </mxCell>
        <mxCell id="pYhxMntjRJ3GyehWfnu0-6" value="&lt;font style=&quot;font-size: 10px;&quot;&gt;[successful]&lt;/font&gt;" style="text;strokeColor=none;fillColor=none;align=left;verticalAlign=middle;spacingLeft=4;spacingRight=4;overflow=hidden;points=[[0,0.5],[1,0.5]];portConstraint=eastwest;rotatable=0;whiteSpace=wrap;html=1;" vertex="1" parent="1">
          <mxGeometry x="337" y="364" width="70" height="30" as="geometry" />
        </mxCell>
        <mxCell id="pYhxMntjRJ3GyehWfnu0-7" value="&lt;font style=&quot;font-size: 10px;&quot;&gt;[unsuccessful]&lt;/font&gt;" style="text;strokeColor=none;fillColor=none;align=left;verticalAlign=middle;spacingLeft=4;spacingRight=4;overflow=hidden;points=[[0,0.5],[1,0.5]];portConstraint=eastwest;rotatable=0;whiteSpace=wrap;html=1;" vertex="1" parent="1">
          <mxGeometry x="180" y="328" width="80" height="30" as="geometry" />
        </mxCell>
      </root>
    </mxGraphModel>
  </diagram>
</mxfile>
